# xmcd
#
# Track frame offsets: 
#        150
#        17781
#        42353
#        59157
#        75908
#        91258
#        111617
#        127405
#        149210
#
# Disc length: 2380 seconds
#
# Revision: 1
# Processed by: cddbd v1.5.2PL0 Copyright (c) Steve Scherf et al.
# Submitted via: ExactAudioCopy v1.0b1
#
DISCID=8a094a09
DTITLE=Willie Hutch - The Mark Of The Beast
DYEAR=1974
DGENRE=Soul
TTITLE0=Get Ready For The Get Down
TTITLE1=The Mark Of The Beast
TTITLE2=Try It, You'll Like It
TTITLE3=Life's No Fun, Living In The Ghetto
TTITLE4=I'm Gonna Stay
TTITLE5=Woman, You Touched Me
TTITLE6=Do The Thing That's Best for You
TTITLE7=Don't You Let Nobody Tell You How To Do Your Thing
TTITLE8=(I Wanted To Be A Rock And Roll Star) Woman, I Still Got Lovin
TTITLE8=g You On My Mind
EXTD=Sean P.
EXTT0=
EXTT1=
EXTT2=
EXTT3=
EXTT4=
EXTT5=
EXTT6=
EXTT7=
EXTT8=
PLAYORDER=
